<svg width="9" height="10" viewBox="0 0 9 10" fill="none" xmlns="http://www.w3.org/2000/svg">
<path fill-rule="evenodd" clip-rule="evenodd" d="M0.210557 0.728966C0.351203 0.588363 0.541933 0.509376 0.740807 0.509376C0.93968 0.509376 1.13041 0.588363 1.27106 0.728966L4.49081 3.94872L7.71056 0.728966C7.77974 0.657334 7.8625 0.600197 7.954 0.56089C8.04551 0.521583 8.14392 0.500894 8.24351 0.500028C8.34309 0.499163 8.44185 0.518139 8.53402 0.55585C8.62619 0.59356 8.70993 0.64925 8.78035 0.71967C8.85077 0.790089 8.90646 0.873828 8.94417 0.966001C8.98188 1.05817 9.00086 1.15693 9 1.25652C8.99913 1.3561 8.97844 1.45452 8.93913 1.54602C8.89983 1.63752 8.84269 1.72028 8.77106 1.78947L5.55131 5.00922L8.77106 8.22897C8.90768 8.37042 8.98327 8.55987 8.98156 8.75652C8.97985 8.95316 8.90098 9.14127 8.76192 9.28033C8.62286 9.41939 8.43476 9.49826 8.23811 9.49997C8.04146 9.50168 7.85201 9.42608 7.71056 9.28947L4.49081 6.06972L1.27106 9.28947C1.1296 9.42608 0.940153 9.50168 0.743506 9.49997C0.546858 9.49826 0.358749 9.41939 0.219693 9.28033C0.0806366 9.14127 0.00175972 8.95316 5.09033e-05 8.75652C-0.00165791 8.55987 0.0739382 8.37042 0.210557 8.22897L3.43031 5.00922L0.210557 1.78947C0.0699535 1.64882 -0.0090332 1.45809 -0.0090332 1.25922C-0.0090332 1.06034 0.0699535 0.869612 0.210557 0.728966Z" fill="#4A4A4A"/>
</svg>
