<svg width="40" height="40" viewBox="0 0 40 40" fill="none" xmlns="http://www.w3.org/2000/svg">
<path d="M8.78052 32.7302C8.80487 30.8727 9.55386 29.0996 10.8655 27.7944C12.1771 26.4893 13.9458 25.757 15.789 25.756H24.211C26.0543 25.757 27.823 26.4893 29.1346 27.7944C30.4462 29.0996 31.1952 30.8727 31.2195 32.7302C28.1411 35.5259 24.144 37.0732 20 37.0732C15.856 37.0732 11.859 35.5259 8.78052 32.7302ZM26.3165 15.1463C26.3165 16.4054 25.9461 17.6361 25.252 18.683C24.5579 19.7298 23.5714 20.5458 22.4172 21.0276C21.2631 21.5094 19.993 21.6355 18.7677 21.3898C17.5425 21.1442 16.417 20.5379 15.5336 19.6476C14.6502 18.7574 14.0486 17.6231 13.8049 16.3882C13.5612 15.1534 13.6863 13.8734 14.1643 12.7102C14.6424 11.547 15.452 10.5528 16.4908 9.85332C17.5295 9.15384 18.7507 8.78049 20 8.78049C21.6753 8.78049 23.2819 9.45117 24.4665 10.645C25.651 11.8388 26.3165 13.458 26.3165 15.1463Z" fill="white"/>
<path d="M35.381 32.7569C37.4341 30.2887 38.862 27.3628 39.544 24.2266C40.226 21.0904 40.142 17.8363 39.299 14.7394C38.4561 11.6425 36.8791 8.79404 34.7014 6.43494C32.5237 4.07583 29.8094 2.27549 26.7881 1.18622C23.7668 0.0969487 20.5273 -0.249208 17.3438 0.177033C14.1602 0.603273 11.1263 1.78937 8.49852 3.63499C5.87079 5.4806 3.72659 7.93144 2.24731 10.7802C0.768031 13.6289 -0.00280571 16.7917 7.67355e-06 20.0011C0.00108726 24.6666 1.64653 29.1827 4.64761 32.7569L4.61902 32.7812C4.71909 32.9012 4.83346 33.004 4.93639 33.1226C5.06505 33.2697 5.20372 33.4082 5.33668 33.5511C5.73696 33.9853 6.14868 34.4024 6.58042 34.7938C6.71194 34.9138 6.84776 35.0252 6.98071 35.1395C7.43818 35.5337 7.90851 35.908 8.396 36.2565C8.45891 36.2994 8.51609 36.3551 8.57899 36.3994V36.3822C11.9272 38.7365 15.9215 40 20.0157 40C24.1099 40 28.1042 38.7365 31.4525 36.3822V36.3994C31.5154 36.3551 31.5711 36.2994 31.6355 36.2565C32.1215 35.9065 32.5933 35.5337 33.0508 35.1395C33.1837 35.0252 33.3195 34.9124 33.451 34.7938C33.8828 34.401 34.2945 33.9853 34.6948 33.5511C34.8277 33.4082 34.965 33.2697 35.0951 33.1226C35.1966 33.004 35.3124 32.9012 35.4124 32.7797L35.381 32.7569ZM20.0143 8.57374C21.2867 8.57374 22.5305 8.95073 23.5884 9.65703C24.6463 10.3633 25.4709 11.3672 25.9578 12.5418C26.4447 13.7163 26.5721 15.0088 26.3239 16.2556C26.0756 17.5025 25.4629 18.6479 24.5632 19.5468C23.6635 20.4458 22.5173 21.058 21.2694 21.306C20.0214 21.554 18.7279 21.4267 17.5524 20.9402C16.3769 20.4537 15.3722 19.6298 14.6653 18.5728C13.9584 17.5157 13.5811 16.2729 13.5811 15.0016C13.5811 13.2968 14.2589 11.6619 15.4654 10.4564C16.6718 9.25096 18.3081 8.57374 20.0143 8.57374ZM8.58757 32.7569C8.61237 30.8813 9.3752 29.0909 10.711 27.773C12.0469 26.4551 13.8483 25.7157 15.7255 25.7148H24.3031C26.1803 25.7157 27.9818 26.4551 29.3176 27.773C30.6534 29.0909 31.4162 30.8813 31.441 32.7569C28.3057 35.5799 24.2348 37.1422 20.0143 37.1422C15.7938 37.1422 11.7229 35.5799 8.58757 32.7569Z" fill="#2F80ED"/>
</svg>
